<svg version="1.0" xmlns="http://www.w3.org/2000/svg" width="1280" height="1280" viewBox="0 0 960 960"><path d="M110.5 98.3c-7 3.4-12.8 10.4-13.9 16.7-.3 1.9-.5 9.8-.5 17.5 0 7.7 0 15.1-.1 16.5-.1 1.4-.2 2.9-.1 3.5v20c0 5.8 0 4.7.1 15.5.1 10 .1 21.3.1 23.7 0 1-.1 7.8-.1 15.1v13.3l-3.8-.1c-2 0-7.7-.1-12.7-.1-4.9 0-13.6-.1-19.3-.2-5.6-.1-10.2.2-10.2.6 0 .5-.4.6-.9.3-1.2-.8-14.8-.8-18.3-.1-1.6.3-3.8.7-5.1.9-7.5 1.3-17.9 10.2-22.4 19.3l-2.8 5.8L.3 556 0 845.5l2.5 4.8c5.6 11.1 12 13.7 34 13.7 14.1 0 20-.8 23-3.2.5-.4 2.5-2 4.3-3.4 2.9-2.3 9.6-13.7 8.6-14.6-.2-.3-.5-8.9-.3-12.8.1-2.8 0-25.5-.2-32-.1-3.6-.1-7.2-.1-8 .1-.8.1-13 .1-27s-.1-26-.1-26.5V704c0-8.1.1-24.7.1-25.5.2-4.2.2-11.7.2-21.5 0-6.3 0-12.2.1-13 0-.8 0-4.7-.1-8.5 0-3.9-.1-8.8 0-11 .1-8.8 0-28.3-.2-32.5 0-2.5-.1-5.2-.1-6 .1-1.2.1-36.5.1-41.5-.1-.6 0-7.5 0-15.5 0-13.8 0-16.3.2-19.3V497c0-6.3 0-12.2.1-13 0-1.5 0-5-.3-25v-10.8c.1-.6.1-1.8.2-2.5.1-2.3 0-25.2-.2-31.7-.1-3.6-.1-7.2-.1-8 .1-.8.1-13 .1-27s-.1-26-.1-26.5c0-.6.1-7.8.1-16 0-19 .1-22.7.7-23.7.3-.4 4-.8 8.2-.8 4.2-.1 8.4-.1 9.2-.1.8-.1 5.6-.1 10.5 0H111c.8-.1 10.5-.1 21.5 0H154c.8-.1 4.9 0 9.1.1 4.3.1 8.2-.1 8.8-.4.6-.4 1.1-.2 1.1.4 0 .7.6.8 1.9.1 1-.6 2.1-.8 2.3-.5.4.3 30.9.6 40.8.2.8 0 5.6 0 10.5.1H239c.8-.1 6.9-.1 13.5 0H266c.8-.1 5.6-.1 10.5 0H287c.8-.1 6.9-.1 13.5 0H314c.8-.1 5.6-.1 10.5 0H335c2.8-.1 26.5 0 31 .2 2.5.1 5.2.1 6 .1.8-.1 6.7-.1 13-.1h12.8c.6-.1 1.8-.1 2.5-.2H432c.8-.1 5.3 0 10 .1 14.9.3 13.8.7 13.9-4.8v-48.7c0-9.9-.1-18.6 0-19.3v-47c.1-.6.1-1.8.2-2.5 0-1 .1-13.1 0-20 0-1.7 1.5-1.8 22.7-1.8 12.5.1 25.6.1 29.2.2 3.6.1 7.2.1 8 .1.8-.1 6.7-.1 13-.1h12.8c.6-.1 1.8-.1 2.5-.2h63.5c2.7.2 6.7.2 20.2.2h13c9.8 0 17.3 0 21.5-.2 3.3-.1 24.6 0 27.5.1 1.9.1 4.1.2 4.8.3.8 0 1.2 2.1 1.3 6.6.1 3.6.1 7 0 7.5-.2.7-.1 19.6 0 41.1.1.5 0 7.5 0 15.5v48c0 .8.1 8 .1 16v17c0 8.1-.1 24.7-.1 25.5-.2 4.2-.2 11.7-.2 21.5 0 6.3 0 12.2-.1 13 0 .8 0 4.6.1 8.5 0 3.8.1 8.8 0 11-.1 8.8 0 28.3.2 32.5 0 2.5.1 5.2.1 6-.4 8-.1 16.5.5 17.1.4.4 3.3.8 6.3.9 10.2.2 32.7.2 39.5-.1.8 0 17.4-.1 25.5-.1h17c8 0 15 0 15.5.1h21c11 0 22 .1 24.5.2 2.5 0 5.2.1 6 .1 2-.1 23.5-.1 28.5 0 2.2 0 4.7-.1 5.5-.3 1.3-.4 1.5 2.7 1.7 22.1.1 12.4.3 25.4.3 29 .1 5.7.2 27.8.1 30.5-.2 4.2-.2 11.7-.2 21.5 0 6.3 0 12.2-.1 13 0 .8 0 4.6.1 8.5 0 3.8.1 8.8 0 11V620c0 13.1 0 16.3.2 20.7 0 1.9.1 23.1 0 24.8-.2 4.2-.2 11.7-.2 21.5 0 6.3 0 12.2-.1 13 0 .8 0 4.6.1 8.5 0 3.8.1 8.8 0 11-.1 8.8 0 28.3.2 32.5 0 2.5.1 5.2.1 6-.1 1.2-.1 36.5-.1 41.5.1.5 0 7.5 0 15.5-.2 32.4.3 35.4 7.3 42.1 6.7 6.3 9.1 6.8 29.1 6.6 15.4-.2 18.5-.5 21.5-2.1 4.3-2.2 11-9 11-11 0-.8.6-1.6 1.3-1.8.9-.4 1.2-45.2 1.2-219.7 0-193.7-.2-219.3-1.5-220.1-.8-.5-1.1-1-.7-1 1.7 0-4.8-10.2-8.9-14-3.5-3.2-13.1-9.1-14.9-9-.3 0-.6-.1-.7-.1-.9-.4-16.2-1.1-23.3-1h-21c-.5 0-4.7.1-9.3.2-4.5.1-8.5 0-8.7-.3-.2-.2-3-.1-6 .2-3.1.3-5.8.3-6 0-.2-.3-2.9-.3-6 0s-5.8.3-6 0c-.2-.3-2.9-.3-6 0s-5.8.3-6 0c-.2-.3-2.9-.3-6 0s-5.8.3-6 0c-.2-.3-2.9-.3-6 0s-5.8.3-6 0c-.2-.3-2.9-.3-6 0s-5.8.3-6 0c-.2-.3-3.1-.3-6.4 0-3.4.3-6.1.3-6.1 0s-3.9-.5-8.7-.5h-8.8l-.1-4.8c0-2.6-.3-4.9-.5-5.2-.3-.2-.2-3 .1-6 .3-3.1.3-5.8 0-6-.3-.2-.3-2.9 0-6s.3-5.8 0-6c-.3-.2-.3-2.9 0-6s.3-5.8 0-6c-.3-.2-.3-2.9 0-6s.3-5.8 0-6c-.3-.2-.3-2.9 0-6s.3-5.8 0-6c-.3-.2-.3-2.9 0-6s.3-5.8 0-6c-.3-.2-.3-2.9 0-6s.3-5.8 0-6c-.3-.2-.3-2.9 0-6s.3-5.8 0-6c-.3-.2-.3-2.9 0-6s.3-5.8 0-6c-.3-.2-.3-2.9 0-6s.3-5.8 0-6c-.3-.2-.4-2.8 0-5.7.3-2.9.3-6.7 0-8.3-.3-1.7-.3-4.4 0-6 .3-1.7.3-4.4 0-6-.3-1.7-.3-4.4 0-6 .3-1.7.3-4.4 0-6-.3-1.7-.3-4.4 0-6 .3-1.7.3-4.4 0-6-.3-1.7-.3-4.4 0-6 .3-1.7.3-4.4 0-6-.3-1.7-.3-4.4 0-6 .3-1.7.3-4.4 0-6-.3-1.7-.3-4.4 0-6 .3-1.7.3-4.4 0-6-.3-1.7-.3-5.6 0-8.8.3-3.1.3-5.7 0-5.7s-.3-2.7 0-6 .3-6 0-6-.5-3.5-.5-7.8c0-8.8-1.7-14.9-5.6-20.8-4.8-7.1-13.9-13.7-20.9-15.3-4.4-1-326.3-1.2-329.5-.2-9.2 2.9-11.8 4.4-18.2 11-3.4 3.5-8.3 12.7-8.3 15.6 0 .9-.5 2.5-1 3.6-.6 1-.7 1.9-.3 1.9.5 0 .6 3 .3 6.6-.3 3.6-.3 6.7 0 6.9.4.2.3 2.9 0 6s-.3 5.8 0 6c.3.2.3 2.9 0 6s-.3 5.8 0 6c.3.2.3 2.9 0 6s-.3 5.8 0 6c.3.2.3 2.9 0 6s-.3 5.8 0 6c.3.2.3 2.9 0 6s-.3 5.8 0 6c.3.2.3 2.9 0 6-.3 3-.4 5.8-.2 6 .6.6.4 17.6-.1 18.2-.3.2-.1 2 .3 3.9.7 3.2.6 3.4-1.9 3.5-1.4.1-3 .1-3.5 0s-3-.2-5.5-.1c-2.5 0-5.3.1-6.1.1-.8 0-6.9 0-13.5-.1s-12.4-.1-13 0c-4.4.9-4.4.9-4.2-17.5.1-9.6-.2-17.5-.6-17.5-.5 0-.6-.4-.2-.9.3-.6.5-5.9.5-11.8-.1-5.9-.1-11.7-.1-12.8.1-1.1 0-4.7 0-8V160c.2-22.5.1-29.1-.4-29.9-.3-.5-.1-1.2.4-1.6.6-.3.8-1.1.6-1.8-.2-.7-.6-4-.9-7.4-.6-7.4-2.1-10.6-7.3-15.6-7-6.8-8-7.1-26.9-7.5-15.9-.3-17.5-.2-22.3 1.8-5.1 2.3-12.1 8.8-12.1 11.4 0 .8-.6 1.6-1.2 1.8-1.4.5-2 13.6-1.7 36.3 0 6.6.1 12.7 0 13.5v10.5c.1 4.9.1 9.7 0 10.5v13.5c.1 6.6 0 13.1-.1 14.5-.1 1.4-.2 2.9-.2 3.5.1 12.9.1 23.4.1 24.7 0 1.4-1.5 1.7-10.5 2-5.7.2-10.4.1-10.4-.2 0-.5-24.7-.3-29.2.3-1.6.2-2.8.1-2.8-.2 0-.6-24.3-.4-29.2.2-1.6.2-2.8.1-2.8-.3 0-.3-2.5-.4-5.5-.2l-5.5.3-.1-22.8c0-12.5-.1-23.7-.1-24.8 0-7.2.1-21.6.3-25 0-2.2.1-4.6 0-5.3-.2-2.5-.2-3.9-.2-12.7 0-11.9 0-11.2.1-21.4.3-15-3.4-22.9-13.5-29.1-3.8-2.4-4.9-2.5-21.5-2.8-16.7-.3-17.7-.2-22.5 2.1z"/><path d="M543.6 239.9c-.3.4-1.9 1.1-3.5 1.4-4 .8-8.6 5.4-11 10.9-1.1 2.5-1.8 4.8-1.5 5 .3.4.5 9.6.3 14.8v17c-.1.8-.1 4.2 0 7.5v7.5c-.3 6.7.5 17.8 1.4 20.4 1.5 3.9 4.4 7.6 7.7 9.5 2.8 1.6 12.6 2.3 26.5 2 1.1 0 6.9 0 12.8.1 5.9 0 11.2-.2 11.8-.5.5-.4.9-.3.9.2 0 .9 15.7.8 20.5-.2 4.8-.9 10.1-5.1 12.3-9.7 2.3-4.6 2.3-4.8 2.3-21.3-.1-6.1 0-16.5.2-23.3.1-6.7 0-12.2-.3-12.2s-.5-3.8-.5-8.3c0-7.6-.3-8.7-2.7-12-5.8-7.5-9.6-8.8-25.8-8.7-4.7 0-14.1-.1-21-.1h-14c-8.7.2-14.3 0-15-.4-.5-.3-1.1-.1-1.4.4zM168.9 383.4c-.2.2-2.9.5-5.9.7-3 .1-7.1 1-9 2-3.3 1.6-8.7 7.3-8.3 8.8 0 .3-.4 1.5-1 2.6s-1 2.4-.9 2.8c.2.7.2 12.4.1 16.7-.1.8-.1 4.2 0 7.5v7.5c-.1 1.9 0 17 .1 23.5.2 10.1.9 13.7 3.7 17.4 1.5 2 3.2 3.9 3.7 4.4 2.2 1.5 8.7 2.8 13.8 2.7 8.1-.1 8.4-.1 15.3-.1h11.8c14.2 0 23.5 0 28.8.1 7.9.2 15.9-5.7 17.9-13.1.7-2.4 1.1-7.1 1-10.4-.1-3.3-.1-6.7-.1-7.5v-6.5c0-5.7 0-10.7.1-26.9.2-17.4-.4-20.1-5.9-25.6-5.1-5.1-7.4-5.9-16.9-5.7-3.4.1-6.2 0-6.2-.3s-2.7-.3-6 0-6 .3-6 0-2.6-.3-5.7 0c-3.2.3-7.1.3-8.8 0-1.6-.3-5.4-.3-8.2 0-2.9.3-5.7.2-6.1-.2-.5-.5-1-.6-1.3-.4zm145.9.1c-.2.3-2.7.5-5.4.6-7.2.2-12 1.6-15.3 4.7-2.9 2.6-6.7 9.8-6.2 11.7.1.5.2 6.5.1 13.5-.1 6.9 0 14.3.1 16.5 0 2.2.1 4.7 0 5.5-.2 5.4 0 25.2.4 28.8.5 5.3 4.9 11.7 9 13.3 3.7 1.5 11.1 2 24.8 1.9 3.8 0 7.2.2 7.7.5s1.1.1 1.5-.5c.4-.6 1-.8 1.6-.5.5.3 7.5.5 15.6.5 8.2-.1 15.7-.1 16.8-.1 6.1.1 13.7-4.4 16.4-9.7 1.5-2.9 3.1-12.1 2.1-12.7-.3-.2-.3-2.9 0-6s.3-5.8 0-6c-.3-.2-.3-2.9 0-6s.3-5.8 0-6c-.3-.2-.3-2.9 0-6s.3-5.8 0-6c-.3-.2-.3-2.9 0-6 .3-3 .4-5.7.2-6-.2-.2-.5-3-.6-6.2-.2-7.5-3.7-13.8-9.4-17.1-2.2-1.2-8.4-2.6-11.2-2.4-.8.1-4.9.1-9 .1h-16c-6.4 0-6 0-14.5.1-3.6.1-6.9-.1-7.4-.4-.4-.3-1-.3-1.3-.1zm234 0c-.2.2-2.1.5-4.3.7-2.2.3-5.4 1.2-7 2.1-3 1.5-7.3 6.2-7.6 8.2 0 .5-.6 1.9-1.2 3s-1 2.4-.9 2.8c.2.7.2 12.4.1 16.7-.1.8-.1 4.2 0 7.5v7.5c-.1 1.9 0 17 .1 23.5.2 10.1.9 13.7 3.7 17.4 1.5 2 3.2 3.9 3.7 4.4 2.2 1.5 8.7 2.8 13.8 2.7 8.1-.1 8.4-.1 15.3-.1h11.8c14.2 0 23.5 0 28.8.1 7.9.2 15.9-5.7 17.9-13.1.7-2.4 1.1-7.1 1-10.4-.1-3.3-.1-6.7-.1-7.5v-6.5c0-5.3 0-9.2.1-27.7.1-14.2-.5-18.4-3.6-22.5-4-5.3-7.7-7.3-14.6-7.9-3.5-.3-6.8-.7-7.5-.9-.7-.2-1.4-.1-1.7.4-.3.4-3 .4-6.1.1-3.1-.3-5.8-.3-6 0-.2.3-2.9.3-6 0s-5.8-.3-6 0c-.2.3-2.8.4-5.7 0-2.9-.3-6.6-.3-8.3 0-1.6.3-4.4.3-6.2-.1-1.8-.4-3.3-.5-3.5-.4zM159.7 528.2c-9.5 2-14.8 7.8-15.4 16.8-.2 2.5-.3 9.9-.2 16.5 0 6.6 0 13.1-.1 14.5-.1 1.4-.2 2.9-.1 3.5v12c0 15.5.1 16.6 1.1 20.5 1.2 4.4 1.7 5 6.1 8.3 2.2 1.6 5.4 2.9 8 3.2 4.7.6 21.7.7 36.7.3 5-.2 9.2-.1 9.2.2 0 .9 17.9.1 21.8-.9 5.1-1.5 9.7-5.7 12.1-11.3 1.1-2.5 1.8-4.8 1.5-5-.3-.4-.5-9.6-.3-14.8v-17c.1-.8.1-4.2 0-7.5V560c1.1-23-5.2-32.1-21.8-31.7-4 .1-7.3 0-7.3-.3s-5.5-.4-12.2-.3c-23.4.5-33.7.5-34.5.1-.4-.3-2.5-.1-4.6.4zm146.2-.7c-.3.2-1.6.6-3.1.9-5.5 1-12.4 6.5-13.5 10.9-1.2 4.9-1.8 10.6-1.3 12.7.3 1.4.3 4.3 0 6.5s-.4 5 0 6.3c.3 1.2.3 5.5 0 9.5s-.3 10.5 0 14.5c.3 4.1.2 7.6-.2 7.8-.4.3-.5 1-.3 1.7s.6 4.2.9 7.9c.3 5.3 1 7.6 3.3 10.7 5 7.1 5.9 7.3 44.3 7h17c.8 0 4.2 0 7.5.1 10.3.3 18-3.2 21.4-9.8 1.5-2.9 3.1-12.1 2.1-12.7-.3-.2-.3-2.9 0-6s.3-5.8 0-6c-.3-.2-.3-2.9 0-6s.3-5.8 0-6c-.3-.2-.3-2.9 0-6s.3-5.8 0-6c-.3-.2-.3-2.9 0-6 .3-3 .4-5.7.2-6-.2-.2-.5-3-.6-6.2-.2-7.6-3.7-13.8-9.6-17.2-2.8-1.6-12-2.4-23-2-.8 0-5.8 0-11-.1h-20.9c-6.2 0-11.6-.2-12.1-.5-.4-.2-.9-.3-1.1 0zm248.7.2c-.1.2-3.1.3-6.7.5-3.7.1-7.9.9-9.9 1.9-3.4 1.6-8.1 6.7-8.7 9.2-.1.7-.6 2.9-1.1 4.9-.6 2-.8 3.9-.5 4.2.5.4.5 11.5 0 34.4-.1 6.7 0 12.2.3 12.2s.4 3.5.3 7.7c-.2 11.3 3 16.9 11.3 20 2.6.9 13.7 1.7 20.4 1.4h7.5c3.3.1 6.7.1 7.5 0h17c3.5-.1 14.1-.1 14.8.1.4.1 2.3-.4 4.4-1 5.2-1.8 10.4-7.2 11.8-12.1 1.1-4.1 1.9-22.1 1-22.1-.3 0-.4-4.2-.2-9.2.4-16.7.3-31.2-.3-35.8-.6-4.8-3.8-9.6-8.4-12.9-2.6-1.9-10.4-3.9-12.6-3.2-.5.1-5.7.2-11.5.1-5.8 0-11.2-.1-12-.1-3.7.1-13 0-18.3-.2-3.2-.1-6-.1-6.1 0zm192 0c-.1.2-3.1.3-6.7.5-7.5.2-12.5 2.3-15.9 6.8-1.4 1.8-2.3 3.3-2.1 3.4.2 0-.1 1.2-.8 2.5-.7 1.3-1.2 4.6-1.2 7.5.1 2.8.2 7.7.2 10.8v12.3c0 7.3 0 6.1-.1 21.5 0 16 .5 19.7 3.7 23.9 3.3 4.4 3.9 4.9 8.3 6.1 3.9 1.1 5.1 1.1 20.3 1.1h12c.6.1 2.3 0 3.7-.1 1.4-.1 7.9-.1 14.5-.1 17.9.2 20.9-.2 25.3-3.2 5-3.2 8.4-10 8.3-16.2-.1-2.5-.1-7.4-.1-11 0-3.6-.1-9.4-.1-13 0-7.7 0-7.1.1-21 .1-18.5-1.3-23-8.9-28.4-2.6-1.9-10.4-3.9-12.6-3.2-.5.1-5.7.2-11.5.1-5.8 0-11.2-.1-12-.1-3.7.1-13 0-18.3-.2-3.2-.1-6-.1-6.1 0zM161.5 671.8c-12.5 2.3-17.9 9.7-17.5 23.7.1 3.3.1 6.7.1 7.5v17c-.2 31.5-.1 33.9 2 39 1.5 3.7 8.1 8 13.1 8.5 5.5.5 11.1.7 12.1.5 1.7-.3 13.8-.2 14.2.2.3.2 3 .1 6-.2 3.1-.3 5.8-.3 6 0 .2.3 2.9.3 6 0 3-.3 5.7-.4 6-.2.2.3 3.8.4 8 .4 11.6-.1 17.9-3.9 21.6-12.8.7-1.6 1.1-3.3 1-3.8-.1-.7-.1-11.9 0-16.6.1-.8.1-4.2 0-7.5 0-3.3-.1-6.9 0-8V707c0-5.8.1-11 .1-11.5 0-.6-.2-3.4-.6-6.4-1.2-10.8-9.5-17.4-21.3-17.1-2.1 0-4.5.1-5.3.1h-21c-3 0-9.3-.1-13.8-.1-4.6-.1-8.6.1-8.9.3-.2.3-1.7.2-3.1-.2-1.5-.4-3.6-.6-4.7-.3zm153.1-.1c-.1.2-2.5.3-5.2.4-7.3.2-12 1.6-15.5 4.8-3.9 3.6-7 12.2-5.9 16.2.5 1.5.6 2.9.4 3.2-.3.2-.4 6.1-.4 13.1.1 6.9.1 13.4.1 14.3v12c-.2 11.9.3 19.1 1.8 22.8 1.6 4.1 8 8.5 13.3 9 6.2.7 23.7.7 24.8 0 .6-.3 1-.1 1 .5s.4.9.9.6c.5-.4 4.2-.6 8.3-.6 4 .1 8.7 0 10.3-.1 1.7 0 3.7-.1 4.5 0 12.5.5 18.5-.3 22.9-3.2 6.1-4.1 8.5-10.4 8-21.7v-38.5c0-.8 0-3.4.1-5.8.1-13-1.2-17-7-22-4.8-4.1-8.4-4.9-20-4.7-4.7.1-9.2.1-10 .1h-6.5c-2.7 0-6.1 0-7.5-.1-7-.3-18.2-.5-18.4-.3zm424.3.5c-7.2.7-10.1 1.8-13.6 5.3-2.9 2.8-5.4 8.7-5.3 12.3.1 2.2.1 8.4.1 17.9V735c-.3 12.8.4 21.2 2 24 3.3 5.7 9.4 8.7 17.7 8.7 2.9 0 5.5.2 5.7.5.2.2 3 .1 6-.2 3.1-.3 5.8-.3 6 0 .2.3 2.9.3 6 0s5.8-.3 6 0c.2.3 2.8.4 5.7 0 3-.3 6.5-.3 7.9 0 1.3.3 4.2.3 6.4 0s5.1-.3 6.5 0c3.6.9 10.3-1.6 14.4-5.4 4.1-3.9 5.9-9.6 5.6-18.1-.1-3.3-.1-6.7-.1-7.5v-38c.4-14.2-2.6-21.3-10.7-25.1-2.8-1.4-12.4-2.2-21.2-2h-13c-4.9.2-12.4 0-13.1-.4-.4-.3-1-.2-1.3.3-.3.4-2.9.6-5.8.3-2.9-.4-8.3-.3-11.9.1z"/></svg>